<?xml version="1.0" encoding="utf-8"?>
<!-- Generator: Adobe Illustrator 24.0.2, SVG Export Plug-In . SVG Version: 6.00 Build 0)  -->
<svg version="1.1" id="Layer_1" xmlns="http://www.w3.org/2000/svg" xmlns:xlink="http://www.w3.org/1999/xlink" x="0px" y="0px"
	 viewBox="0 0 841.89 841.89" style="enable-background:new 0 0 841.89 841.89;" xml:space="preserve">
<style type="text/css">
	.st0{fill:#443635;}
	.st1{fill:#A39383;}
</style>
<g>
	<g>
		<g>
			<path class="st0" d="M520.61,393.99c-7.77-10.01-18.77-18.93-32.68-26.53c-2.62-1.43-5.32-2.79-8.09-4.1
				c6.55-5.19,12.02-10.85,16.32-16.92c7.27-10.19,10.94-21.09,10.94-32.38s-3.67-22.18-10.94-32.38
				c-6.8-9.57-16.48-18.13-28.75-25.43c-24.74-14.7-57.51-22.8-92.3-22.8c-0.5,0-0.99,0-1.49,0.02c-0.42-0.02-0.86-0.02-1.29-0.02
				c-2.94,0-5.6,0.06-8.04,0.2v-10.24c0-1.34-0.55-2.55-1.41-3.41c-0.88-0.88-2.09-1.43-3.43-1.43c-2.67,0-4.84,2.17-4.84,4.84
				v11.01c-12.67,1.2-24.96,3.49-36.47,6.83c-2.25,0.65-3.78,2.73-3.78,5.07c0,2.99,2.46,5.26,5.28,5.26c0.49,0,0.97-0.08,1.47-0.21
				c10.59-3.06,21.86-5.22,33.5-6.37v100.66c-11.79,1.34-23.24,3.46-34.03,6.33c-3.66,0.97-6.22,4.14-6.22,7.71
				c0,2.56,1.27,4.92,3.49,6.45c2.17,1.49,4.9,1.96,7.51,1.26c9.27-2.46,19.12-4.34,29.25-5.57v21.29
				c-11.64-1.15-22.91-3.29-33.5-6.36c-3.38-0.99-6.75,1.53-6.75,5.05c0,1.17,0.38,2.26,1.05,3.16s1.61,1.56,2.73,1.9
				c11.53,3.35,23.8,5.64,36.47,6.84v101.33c-10.13-1.23-19.98-3.09-29.25-5.57c-2.61-0.68-5.34-0.23-7.51,1.27
				c-2.22,1.52-3.49,3.87-3.49,6.43c0,3.58,2.56,6.75,6.22,7.72c10.79,2.87,22.26,4.99,34.03,6.33v11.79c0,1.35,0.55,2.56,1.41,3.43
				c0.88,0.88,2.09,1.43,3.43,1.43c2.67,0,4.84-2.17,4.84-4.85v-10.88c1.4,0.11,2.79,0.2,4.2,0.29c2.93,0.32,6.14,0.49,9.8,0.49
				c0.96,0,1.91,0,2.85-0.03h0.05v6.57c0,4.64,3.69,8.42,8.21,8.42c4.52,0,8.21-3.78,8.21-8.42v-6.86
				c34.01-1.67,65.69-9.74,90.31-23.17c13.91-7.59,24.91-16.51,32.68-26.52c8.4-10.83,12.65-22.42,12.65-34.47
				S529.02,404.8,520.61,393.99z M364.3,244.28c3.25-0.17,6.52-0.26,9.8-0.27c32.25,0.26,62.43,7.81,85.14,21.32
				c22.29,13.24,34.54,30.55,34.54,48.74c0,16.01-9.5,31.34-26.97,43.81c-20.57-7.69-44.25-12.36-69.2-13.58v-75.98
				c0-4.64-3.69-8.42-8.21-8.42c-4.52,0-8.21,3.78-8.21,8.42V344h-0.05c-0.94-0.03-1.9-0.03-2.85-0.03c-2.94,0-5.69,0.14-8.27,0.39
				c-1.91,0.11-3.82,0.23-5.73,0.38V244.28z M397.62,360.76c17.07,1.32,33.32,4.38,48.03,9.04c-14.28,6.33-30.62,10.67-48.03,12.8
				V360.76z M364.3,360.84c5.6-0.46,11.24-0.73,16.9-0.79v23.89c-2.35,0.11-4.72,0.17-7.1,0.18c-3.28-0.02-6.55-0.11-9.8-0.27
				V360.84z M381.2,496.83c-5.66-0.06-11.3-0.33-16.9-0.79V394.4c0.26,0.02,0.52,0.03,0.77,0.05c2.17,0.15,4.57,0.23,7.27,0.23
				c0.42,0,0.86,0,1.29-0.02c0.5,0.02,0.99,0.02,1.49,0.02c2.03,0,4.07-0.03,6.08-0.08V496.83z M473.13,475.58
				c-20.63,11.24-46.92,18.33-75.51,20.54V393.53c23.41-2.43,45.19-8.62,63.34-18.08c4.23,1.81,8.3,3.76,12.17,5.87
				c23.73,12.94,36.8,29.67,36.8,47.12C509.93,445.9,496.85,462.64,473.13,475.58z"/>
		</g>
	</g>
	<g>
		<g>
			<path class="st0" d="M321.29,587.46c-2.05-2.64-4.95-4.99-8.62-6.99c-0.7-0.38-1.4-0.74-2.14-1.08c1.73-1.35,3.17-2.85,4.31-4.45
				c1.91-2.69,2.88-5.57,2.88-8.54c0-2.97-0.97-5.84-2.88-8.53c-1.79-2.52-4.34-4.76-7.57-6.69c-6.52-3.87-15.14-6.01-24.3-6.01
				h-0.74c-0.64,0-1.23,0.02-1.79,0.05v-2.09c0-0.53-0.12-0.97-0.36-1.29c-0.52-0.73-1.61-0.76-2.31-0.17
				c-0.24,0.21-0.53,0.61-0.53,1.24v2.55c-3.23,0.32-6.34,0.91-9.28,1.76c-0.59,0.18-0.99,0.73-0.99,1.34c0,0.79,0.65,1.4,1.4,1.4
				c0.12,0,0.24-0.03,0.38-0.06c2.69-0.79,5.55-1.34,8.5-1.65v26.53c-2.99,0.35-5.9,0.9-8.63,1.62c-0.97,0.26-1.64,1.09-1.64,2.03
				c0,0.67,0.33,1.29,0.91,1.7c0.58,0.39,1.3,0.52,1.99,0.33c2.34-0.62,4.82-1.11,7.37-1.43v5.54c-2.94-0.32-5.81-0.86-8.5-1.65
				c-0.9-0.26-1.77,0.41-1.77,1.34c0,0.3,0.09,0.59,0.27,0.83c0.18,0.23,0.42,0.41,0.71,0.5c2.94,0.85,6.05,1.44,9.28,1.76v26.69
				c-2.55-0.33-5.04-0.8-7.37-1.43c-0.68-0.18-1.41-0.06-1.99,0.33s-0.91,1.02-0.91,1.7c0,0.94,0.67,1.78,1.64,2.03
				c2.73,0.73,5.64,1.27,8.63,1.62v2.9c0,0.52,0.12,0.9,0.33,1.17c0.24,0.29,0.62,0.44,1.14,0.44c0.47,0,0.9-0.15,1.21-0.47
				c0.33-0.3,0.52-0.71,0.52-1.14v-2.61c0.26,0.03,0.53,0.05,0.79,0.06c0.77,0.09,1.61,0.14,2.58,0.14c0.24,0,0.5,0,0.74-0.02
				c0.29,0.02,0.58,0.02,0.86,0.02c10.26,0,19.95-2.2,27.26-6.19c3.67-2,6.57-4.34,8.62-6.98c2.21-2.85,3.32-5.92,3.32-9.09
				C324.62,593.36,323.51,590.31,321.29,587.46z M280.44,548.02c0.74-0.05,1.5-0.06,2.26-0.06c8.5,0.06,16.45,2.06,22.42,5.61
				c5.87,3.49,9.1,8.06,9.1,12.83c0,4.22-2.5,8.25-7.1,11.55c-6.37-2.38-13.87-3.66-21.71-3.66h-1.61c-0.77,0-1.5,0.03-2.18,0.09
				c-0.39,0.02-0.79,0.05-1.18,0.09V548.02z M280.44,578.71c1.41-0.11,2.82-0.17,4.25-0.18h0.06c6.01,0.08,11.74,0.97,16.79,2.56
				c-5.42,2.4-11.94,3.72-18.84,3.78c-0.76,0-1.52-0.02-2.26-0.06V578.71z M308.78,608.96c-6.42,3.49-14.91,5.46-24.03,5.6h-0.06
				c-1.43-0.02-2.84-0.08-4.25-0.18V587.6c0.55,0.03,1.12,0.05,1.79,0.05h0.74c8.39,0,16.32-1.78,22.6-5.07
				c1.12,0.49,2.18,1,3.2,1.55c6.25,3.41,9.69,7.81,9.69,12.41C318.47,601.13,315.03,605.55,308.78,608.96z"/>
		</g>
		<g>
			<g>
				<g>
					<path class="st0" d="M498.54,582.08c-2.37-3.05-5.72-5.76-9.95-8.07c-7.49-4.08-17.13-6.55-27.49-7.05v-23.12
						c0-1.43-1.12-2.56-2.5-2.56c-1.38,0-2.49,1.14-2.49,2.56v23.03h-0.02c-0.29-0.02-0.58-0.02-0.88-0.02
						c-0.9,0-1.73,0.05-2.52,0.12c-5.22,0.29-10.35,1.08-15.05,2.34c-1.11,0.29-1.9,1.26-1.9,2.34c0,0.79,0.39,1.5,1.06,1.97
						c0.67,0.44,1.5,0.59,2.29,0.38c5.25-1.4,11.11-2.17,17.01-2.25v41.64c-5.9-0.08-11.76-0.85-17.01-2.25
						c-0.79-0.2-1.62-0.06-2.29,0.39c-0.67,0.46-1.06,1.18-1.06,1.96c0,1.09,0.79,2.06,1.9,2.35c4.57,1.21,9.53,1.99,14.59,2.29
						c0.88,0.09,1.87,0.15,2.97,0.15c0.3,0,0.59,0,0.88-0.02h0.02v2c0,1.41,1.11,2.56,2.49,2.56c1.38,0,2.5-1.15,2.5-2.56v-2.09
						c10.36-0.5,20-2.96,27.49-7.05c4.23-2.31,7.59-5.02,9.95-8.07c2.56-3.29,3.85-6.83,3.85-10.48
						C502.39,588.9,501.1,585.37,498.54,582.08z M484.08,606.93c-6.28,3.41-14.29,5.57-22.98,6.24v-41.19
						c8.71,0.67,16.7,2.84,22.98,6.25c7.22,3.94,11.21,9.03,11.21,14.35C495.29,597.89,491.3,602.98,484.08,606.93z"/>
				</g>
			</g>
		</g>
		<g>
			<path class="st0" d="M337.47,543.13v78.07c0,0.42-0.17,0.83-0.5,1.14c-0.33,0.32-0.74,0.47-1.21,0.47c-0.52,0-0.9-0.15-1.15-0.44
				c-0.21-0.27-0.32-0.65-0.32-1.17v-78.28c0-0.64,0.29-1.03,0.53-1.24c0.68-0.59,1.79-0.56,2.31,0.17
				C337.36,542.16,337.47,542.6,337.47,543.13z"/>
		</g>
		<g>
			<path class="st0" d="M374.27,596.67c-3-3-6.72-4.54-11.09-4.54c-4.32,0-8.04,1.55-11.06,4.6c-3,3.03-4.52,6.74-4.52,11
				c0,4.23,1.55,7.92,4.61,10.98c3.05,3.05,6.74,4.6,10.97,4.6c4.26,0,7.96-1.53,11-4.55c3.05-3.02,4.6-6.74,4.6-11.03
				C378.78,603.41,377.26,599.69,374.27,596.67z M363.23,620.13c-3.34,0-6.28-1.24-8.74-3.69c-2.46-2.46-3.7-5.39-3.7-8.71
				c0-3.37,1.23-6.3,3.64-8.74c2.4-2.43,5.37-3.66,8.8-3.66c3.44,0,6.4,1.2,8.77,3.57c2.38,2.37,3.58,5.34,3.58,8.83
				c0,3.43-1.21,6.37-3.63,8.77C369.54,618.91,366.61,620.13,363.23,620.13z"/>
		</g>
		<g>
			<path class="st0" d="M428.31,593.41c0,0.33-0.02,0.53-0.06,0.7c-0.05,0.15-0.11,0.32-0.2,0.49l-14.37,27.4
				c-0.21,0.38-0.41,0.64-0.64,0.83c-0.27,0.26-0.61,0.39-0.97,0.39c-0.5,0-0.94-0.33-1.29-0.99c-0.06-0.08-0.12-0.18-0.17-0.26
				l-5.04-9.33l-4.92,9.35c-0.23,0.35-0.44,0.61-0.65,0.8c-0.3,0.29-0.62,0.42-0.96,0.42c-0.42,0-1.03-0.2-1.5-1.15l-14.47-27.76
				c-0.15-0.32-0.2-0.58-0.2-0.79c0-0.38,0.15-0.73,0.46-0.99c0.47-0.42,1.08-0.55,1.73-0.15c0.26,0.15,0.47,0.36,0.62,0.62
				l13.38,25.61l4.9-9.15l-7.71-14.85c-0.06-0.18-0.11-0.29-0.18-0.42c-0.12-0.24-0.18-0.47-0.18-0.67c0-0.35,0.15-0.67,0.47-0.96
				c0.56-0.5,1.15-0.52,1.77-0.2c0.27,0.17,0.5,0.36,0.65,0.64l6.87,13.15l6.69-13.17c0.17-0.24,0.35-0.41,0.65-0.58
				c0.29-0.18,0.56-0.27,0.8-0.27c0.49,0.06,0.82,0.21,1.06,0.47c0.35,0.33,0.41,0.68,0.41,0.91c-0.05,0.3-0.11,0.52-0.17,0.77v0.15
				l-0.11,0.17l-7.69,14.67l4.85,9.32l13.31-25.56c0.17-0.29,0.36-0.49,0.58-0.62c0.18-0.12,0.41-0.2,0.65-0.26l0.11-0.02l0.11,0.02
				c0.36,0.05,0.67,0.18,0.91,0.39C428.08,592.77,428.25,593.08,428.31,593.41z"/>
		</g>
		<g>
			<path class="st0" d="M534.34,596.67c-2.99-3-6.72-4.54-11.07-4.54c-4.34,0-8.06,1.55-11.06,4.6c-3,3.03-4.54,6.74-4.54,11
				c0,4.23,1.56,7.92,4.61,10.98c3.05,3.05,6.75,4.6,10.98,4.6c4.26,0,7.96-1.53,11-4.55c3.03-3.02,4.58-6.74,4.58-11.03
				C538.85,603.41,537.33,599.69,534.34,596.67z M523.31,620.13c-3.34,0-6.28-1.24-8.74-3.69c-2.46-2.46-3.7-5.39-3.7-8.71
				c0-3.37,1.21-6.3,3.63-8.74c2.41-2.43,5.37-3.66,8.81-3.66c3.44,0,6.39,1.2,8.77,3.57c2.37,2.37,3.58,5.34,3.58,8.83
				c0,3.43-1.23,6.37-3.64,8.77C529.62,618.91,526.68,620.13,523.31,620.13z"/>
		</g>
		<g>
			<path class="st0" d="M574.92,604.17v17.04c0,0.46-0.15,0.86-0.46,1.15c-0.3,0.3-0.7,0.46-1.17,0.46c-0.47,0-0.83-0.14-1.11-0.39
				c-0.26-0.26-0.41-0.64-0.46-1.17v-17.52c0-2.97-0.56-5.14-1.64-6.46c-1.06-1.27-2.81-1.93-5.2-1.93c-1.96,0-4.08,0.62-6.28,1.85
				c-2.2,1.23-4.61,3.11-7.19,5.61v18.4c0,0.47-0.17,0.86-0.49,1.17c-0.64,0.59-1.82,0.58-2.34,0.03c-0.24-0.27-0.38-0.67-0.38-1.2
				v-27.34c0.06-0.55,0.23-0.94,0.5-1.23c0.27-0.27,0.67-0.44,1.17-0.49c0.56-0.05,0.97,0.21,1.23,0.64c0.2,0.32,0.3,0.74,0.3,1.29
				v4.52c2.43-2.12,4.69-3.7,6.71-4.7c2.37-1.17,4.76-1.76,7.16-1.76c3.23,0,5.67,1.03,7.27,3.06
				C574.13,597.19,574.92,600.21,574.92,604.17z"/>
		</g>
	</g>
</g>
</svg>
